<svg version="1.0" xmlns="http://www.w3.org/2000/svg" width="128" height="133.333" viewBox="0 0 96 100"><g fill="#fff"><path d="M43.7.7c-1.1 1-.8 6.3.3 6.3.6 0 1-.7 1-1.5S45.7 4 46.5 4s1.5.7 1.5 1.5.5 1.5 1 1.5c1.1 0 1.3-3 .4-5.4-.6-1.6-4.5-2.2-5.7-.9zm3.7 1.1c.3.5-.1.9-.9.9s-1.2-.4-.9-.9c.3-.4.7-.8.9-.8.2 0 .6.4.9.8zM51.8.6c-1.4 1.4-.8 6.2.8 6.8 2.3.9 3.4.7 3.4-.4 0-.6-.6-1-1.4-1-.9 0-1.6-1.2-1.8-3.1-.2-1.7-.6-2.7-1-2.3zM35.4 1.8c-.7.4-.8 1.8-.2 3.8.7 2.7 1.2 3.1 3.3 2.6 3.2-.6 3.7-1.5 2.9-4.7-.6-2.5-3.6-3.4-6-1.7zM38.5 3c-.3.5-1.2 1-1.8 1-.7 0-.6-.4.3-1 1.9-1.2 2.3-1.2 1.5 0zM40 6c0 .5-.7 1-1.5 1S37 6.5 37 6c0-.6.7-1 1.5-1s1.5.4 1.5 1zM28.8 4.1c-3.5 2-.8 7.7 3 6.5 2.4-.8 3-4.4 1-6.4-1.4-1.4-1.8-1.4-4-.1zm3.5 2.4c.7 1.6-.8 2.9-2.3 2-1.5-.9-1.2-3.5.4-3.5.8 0 1.6.7 1.9 1.5zm29.5-.9c-1.1 2.3-1 2.8.7 4 2.4 1.8 3.7 1.4 5.2-1.7 1.1-2 1-2.6-.4-3.7-2.6-1.9-4.2-1.5-5.5 1.4zm5.2-.2C67 7 65.6 9 64.4 9c-1.4 0-1.9-2.2-.7-3.3.7-.8 3.3-1 3.3-.3zm2.4 3.1c-1.9 2.9-1.9 3 1.7 3.8 1.8.5 3.1.2 3.9-.8 1.3-1.6.7-3-2-4.5-1.6-.8-2.2-.6-3.6 1.5zm4.4 1.3c.2.7-.3 1.2-1.2 1.2-.9 0-1.6-.7-1.6-1.6 0-1.7 2.2-1.4 2.8.4zM20 8.5c0 1.4 3.4 5.5 4.5 5.5.7 0 1.9-.7 2.6-1.6 1.2-1.5 1.1-1.6-.8-1-1.6.5-2.6.2-3.5-1.3C21.6 8.2 20 7.3 20 8.5zM77.2 11c.3.8-.2 2.3-1 3.3-1.2 1.3-1.3 2-.4 2.9.9.9 1.2.8 1.2-.4 0-2.5 2.4-4 3.9-2.5 1.1.9 1.3.9.9-.2-.2-.8-1.5-2.1-2.8-3-2-1.3-2.2-1.3-1.8-.1zm-62.1 1.4c-1.5 1.8.5 5.6 2.9 5.6 1.9 0 4-1.9 4-3.7 0-2.2-1.7-1.5-2.4.9-.5 2.1-.7 2.2-2.2.6-1.6-1.6-1.1-4.4.6-3.3.5.3 1.1.1 1.5-.5 1-1.6-3.1-1.2-4.4.4zm34.7 6.3c-2 .5-2.2 1.2-.9 3.1.7 1.1.9 1.1 1.4-.2 1.7-4.3 9.9 2 12.1 9.3l1.4 4.6 1.1-2.9c1.3-3.4.7-6.2-2.2-9.4-1.1-1.2-1.6-2.2-1-2.2 1.6 0 4.2 3.3 5.4 6.9 1 2.8 1.3 3.1 2.1 1.7 1.6-2.9.1-6.1-3.7-7.9-2-1-4-1.5-4.5-1.2-.5.3-1.8.2-2.7-.3-2.6-1.3-6.5-2-8.5-1.5zM7.1 25.5c-6.9 10.9-8.2 30.2-2.8 42 2.9 6.1 7.6 13 8.4 12.2.2-.3-1-2.6-2.7-5.3C.4 59.2-.2 41 8.5 26.6c4-6.7 2.7-7.6-1.4-1.1zm78-4c.2.5 1.8 3.7 3.6 7 7.5 14.5 6.7 32.3-2.2 45.7-2.8 4.2-2.9 6-.2 3.1 3-3.4 6.8-12.3 8.3-19.6 1.3-5.8 1.3-8.6.5-14.6-1.2-8.1-5.2-18-8.4-20.8-1.1-1-1.8-1.4-1.6-.8z"/><path d="M56.8 28.5c.3 1.9.8 2.3 1.5 1.6.8-.8.7-1.6-.5-2.7-1.4-1.4-1.5-1.4-1 1.1zm-21.9 3.3c-5.5 3.5-5.7 3.9-10.8 13.7-3.8 7.3-4 7.7-1.5 5.5 1.5-1.4 3.7-4.8 4.9-7.6 1.4-3 4.4-6.9 7.5-9.7 2.9-2.6 5-4.7 4.8-4.7-.2 0-2.4 1.3-4.9 2.8zm10.6.1c-.3 1.1-3.5 4.5-7.1 7.6-6.3 5.6-7.7 7.8-3.5 5.5 1.9-1 2.1-.8 2.2 1.7 0 2.3.3 2 1.9-2.2 1.3-3.4 3-5.6 5-6.7 2.3-1.3 3-2.4 3-4.8 0-3.4-.6-3.9-1.5-1.1zm6.2 7.4c-1.2 3.1-.8 8.6.8 11.8 1.8 3.4 2.2 7.5 1 10.4-.8 1.8-.7 1.9.9.5 2-1.5 1.9-2.8-.7-17.5-.9-4.7-1.5-6.4-2-5.2z"/><path d="M44 40.5c-1.1 1.3-1.1 2.1.4 5.1 1.7 3.7 1.4 5.4-.8 5.4-1.7 0-6.5 3.9-4.9 4 .6 0 1.5-.5 1.8-1 .3-.6 2.1-1 4-1 2.4 0 3.9.7 5.4 2.6 1.9 2.5 2.1 2.5 2.1.6 0-1.1-1-2.9-2.2-3.9-1.5-1.2-2.4-3.1-2.6-5.6-.2-2.1-.6-4.7-1.1-5.8-.6-1.9-.8-1.9-2.1-.4zm28.6 7.3c2 5.5 1.7 14-.6 19.1-1.9 4.1-1.9 4.4-.3 5.6 2.5 1.8 3 1.2 4.9-5.2 1.9-6.5 1.4-12.4-1.6-18.2-2.6-5.2-4.1-6-2.4-1.3zm-12.6 0c0 .8 1.4 4.5 3.1 8.4 1.8 4.2 2.9 8.1 2.6 9.5-.3 1.7-.1 2.1.6 1.4 2-2 .9-7.9-2.7-14.3-2-3.5-3.6-5.7-3.6-5zM20.4 59.4c-1.5 1.2-1.7 1.7-.6 2.8 1.1 1.1 1.4 1 2.2-.2.9-1.4 1.4-4 .7-4-.2 0-1.2.6-2.3 1.4zM33 64.9l-6.5 1.6 7.8.3c5 .2 8.4-.1 9.3-.9 3.9-3.2-.2-3.6-10.6-1zm9 5.5c-4.5 2.4-8.8 2.9-12.1 1.2L26.8 70l1.5 2.3c.8 1.3 2.7 2.3 4.5 2.5 3 .3 10.4-2.7 11.7-4.8.8-1.3.6-1.2-2.5.4zM17.7 82.7c-1.6 1.5-.4 4 3 6.5 2.5 1.9 4 2.5 4.8 1.8 1.5-1.3 2.5-.3 1.8 1.8-.3 1.3-.1 1.3 1.1-.2 1.5-1.8 2.3-4.7 1-3.3-.3.3-1.5-.3-2.7-1.3-1.2-1-3.3-2.8-4.6-3.9-2.6-2.2-3.4-2.5-4.4-1.4zm3.3 2.4c0 .5-.7.9-1.5.9-1.5 0-2-1.2-.9-2.3.8-.8 2.4.1 2.4 1.4zm2.6 3.6c-1 1-1.9-.5-1-1.8.6-1.1.8-1.1 1.2 0 .2.7.1 1.5-.2 1.8zm51.8-5.6c-.3.6-3.3 2.8-6.5 4.8-3.3 2.1-5.6 4.1-5.2 4.4.3.4.1.7-.5.7-.7 0-1.2-.4-1.2-.9 0-.4-1.6-.3-3.5.3-2.3.7-3.5 1.7-3.5 2.8 0 1-.7 1.8-1.5 1.8s-1.5-.7-1.5-1.5-.4-1.5-.9-1.5-.7.9-.4 2c.4 1.5 1.4 2 3.9 2 1.8 0 3.6-.5 3.9-1 .4-.6 1.2-1 1.8-.8.7.1 2.2-.2 3.5-.6 1.7-.6 2.1-1.3 1.7-2.9-.6-2-.5-2.1.8-.4.9 1 2.1 1.5 3.1 1.1 1.9-.7 2-1.6.4-3.2-.9-.9-.9-1.2-.1-1.2.7 0 1.5.5 1.8 1 .3.5 1.1 1 1.7 1 .6 0 .3-.9-.7-2-1.4-1.6-1.5-2-.4-2 .8 0 1.9.4 2.5.9.5.6 1.8.3 3.4-.9 1.4-1 2.1-2.2 1.7-2.7-.5-.4-1.2-.1-1.6.6-.5.8-1.4 1-2.1.6-1-.6-.9-1.1.5-2.2 1.1-.7 1.4-1.3.8-1.3-.7 0-1.5.5-1.9 1.1zm-6.6 9.4c-.3.3-.9-.2-1.2-1.2-.6-1.4-.5-1.5.5-.6.7.7 1 1.5.7 1.8zm-10.8 3c0 .8-.4 1.5-1 1.5-.5 0-1-.7-1-1.5s.5-1.5 1-1.5c.6 0 1 .7 1 1.5zm-28.1-3.4c-.9 1.7-.8 2.3.2 3 .8.5 2 .7 2.7.4.6-.2 1.2.1 1.2.6 0 .7 1.1.9 2.5.7 1.4-.3 2.5-.1 2.5.3 0 .5.8.9 1.8.9 1.4 0 1.4-.2.3-.9-.8-.5-1.1-1.6-.8-2.5.4-1 .1-1.6-.7-1.6-.8 0-1.6.7-2 1.5-.3.8-1 1.5-1.7 1.5-.6 0-.8-.7-.5-1.6.4-1-.1-2.2-1.1-3-2.5-1.8-3.1-1.7-4.4.7zm2.6.9c-.3.5-1.2 1-1.8 1-.7 0-.6-.4.3-1 1.9-1.2 2.3-1.2 1.5 0zM43 95.5c0 1.3.5 2.7 1 3 .6.3 1-.3 1-1.4 0-1.2.5-2.1 1-2.1.6 0 1 .9 1 2 0 1.3.6 2 1.8 1.9.9 0 1.2-.3.6-.5-.7-.3-.9-1.5-.6-2.7.3-1.2.2-1.9-.3-1.5-.4.4-1.8.3-3.1-.2-2.1-.8-2.4-.7-2.4 1.5z"/></g></svg>