<?xml version="1.0" standalone="no"?>
<!DOCTYPE svg PUBLIC "-//W3C//DTD SVG 20010904//EN"
 "http://www.w3.org/TR/2001/REC-SVG-20010904/DTD/svg10.dtd">
<svg version="1.0" xmlns="http://www.w3.org/2000/svg"
 width="96.000000pt" height="100.000000pt" viewBox="0 0 96.000000 100.000000"
 preserveAspectRatio="xMidYMid meet">

<g transform="translate(0.000000,100.000000) scale(0.100000,-0.100000)"
fill="#ffffff" stroke="none">
<path d="M437 993 c-11 -10 -8 -63 3 -63 6 0 10 7 10 15 0 8 7 15 15 15 8 0
15 -7 15 -15 0 -8 5 -15 10 -15 11 0 13 30 4 54 -6 16 -45 22 -57 9z m37 -11
c3 -5 -1 -9 -9 -9 -8 0 -12 4 -9 9 3 4 7 8 9 8 2 0 6 -4 9 -8z"/>
<path d="M518 994 c-14 -14 -8 -62 8 -68 23 -9 34 -7 34 4 0 6 -6 10 -14 10
-9 0 -16 12 -18 31 -2 17 -6 27 -10 23z"/>
<path d="M354 982 c-7 -4 -8 -18 -2 -38 7 -27 12 -31 33 -26 32 6 37 15 29 47
-6 25 -36 34 -60 17z m31 -12 c-3 -5 -12 -10 -18 -10 -7 0 -6 4 3 10 19 12 23
12 15 0z m15 -30 c0 -5 -7 -10 -15 -10 -8 0 -15 5 -15 10 0 6 7 10 15 10 8 0
15 -4 15 -10z"/>
<path d="M288 959 c-35 -20 -8 -77 30 -65 24 8 30 44 10 64 -14 14 -18 14 -40
1z m35 -24 c7 -16 -8 -29 -23 -20 -15 9 -12 35 4 35 8 0 16 -7 19 -15z"/>
<path d="M618 944 c-11 -23 -10 -28 7 -40 24 -18 37 -14 52 17 11 20 10 26 -4
37 -26 19 -42 15 -55 -14z m52 2 c0 -16 -14 -36 -26 -36 -14 0 -19 22 -7 33 7
8 33 10 33 3z"/>
<path d="M694 915 c-19 -29 -19 -30 17 -38 18 -5 31 -2 39 8 13 16 7 30 -20
45 -16 8 -22 6 -36 -15z m44 -13 c2 -7 -3 -12 -12 -12 -9 0 -16 7 -16 16 0 17
22 14 28 -4z"/>
<path d="M200 915 c0 -14 34 -55 45 -55 7 0 19 7 26 16 12 15 11 16 -8 10 -16
-5 -26 -2 -35 13 -12 19 -28 28 -28 16z"/>
<path d="M772 890 c3 -8 -2 -23 -10 -33 -12 -13 -13 -20 -4 -29 9 -9 12 -8 12
4 0 25 24 40 39 25 11 -9 13 -9 9 2 -2 8 -15 21 -28 30 -20 13 -22 13 -18 1z"/>
<path d="M151 876 c-15 -18 5 -56 29 -56 19 0 40 19 40 37 0 22 -17 15 -24 -9
-5 -21 -7 -22 -22 -6 -16 16 -11 44 6 33 5 -3 11 -1 15 5 10 16 -31 12 -44 -4z"/>
<path d="M498 813 c-20 -5 -22 -12 -9 -31 7 -11 9 -11 14 2 17 43 99 -20 121
-93 l14 -46 11 29 c13 34 7 62 -22 94 -11 12 -16 22 -10 22 16 0 42 -33 54
-69 10 -28 13 -31 21 -17 16 29 1 61 -37 79 -20 10 -40 15 -45 12 -5 -3 -18
-2 -27 3 -26 13 -65 20 -85 15z"/>
<path d="M71 745 c-69 -109 -82 -302 -28 -420 29 -61 76 -130 84 -122 2 3 -10
26 -27 53 -96 152 -102 334 -15 478 40 67 27 76 -14 11z"/>
<path d="M851 785 c2 -5 18 -37 36 -70 75 -145 67 -323 -22 -457 -28 -42 -29
-60 -2 -31 30 34 68 123 83 196 13 58 13 86 5 146 -12 81 -52 180 -84 208 -11
10 -18 14 -16 8z"/>
<path d="M568 715 c3 -19 8 -23 15 -16 8 8 7 16 -5 27 -14 14 -15 14 -10 -11z"/>
<path d="M349 682 c-55 -35 -57 -39 -108 -137 -38 -73 -40 -77 -15 -55 15 14
37 48 49 76 14 30 44 69 75 97 29 26 50 47 48 47 -2 0 -24 -13 -49 -28z"/>
<path d="M455 681 c-3 -11 -35 -45 -71 -76 -63 -56 -77 -78 -35 -55 19 10 21
8 22 -17 0 -23 3 -20 19 22 13 34 30 56 50 67 23 13 30 24 30 48 0 34 -6 39
-15 11z"/>
<path d="M517 607 c-12 -31 -8 -86 8 -118 18 -34 22 -75 10 -104 -8 -18 -7
-19 9 -5 20 15 19 28 -7 175 -9 47 -15 64 -20 52z"/>
<path d="M440 595 c-11 -13 -11 -21 4 -51 17 -37 14 -54 -8 -54 -17 0 -65 -39
-49 -40 6 0 15 5 18 10 3 6 21 10 40 10 24 0 39 -7 54 -26 19 -25 21 -25 21
-6 0 11 -10 29 -22 39 -15 12 -24 31 -26 56 -2 21 -6 47 -11 58 -6 19 -8 19
-21 4z"/>
<path d="M726 522 c20 -55 17 -140 -6 -191 -19 -41 -19 -44 -3 -56 25 -18 30
-12 49 52 19 65 14 124 -16 182 -26 52 -41 60 -24 13z"/>
<path d="M600 522 c0 -8 14 -45 31 -84 18 -42 29 -81 26 -95 -3 -17 -1 -21 6
-14 20 20 9 79 -27 143 -20 35 -36 57 -36 50z"/>
<path d="M204 406 c-15 -12 -17 -17 -6 -28 11 -11 14 -10 22 2 9 14 14 40 7
40 -2 0 -12 -6 -23 -14z"/>
<path d="M330 351 l-65 -16 78 -3 c50 -2 84 1 93 9 39 32 -2 36 -106 10z"/>
<path d="M420 296 c-45 -24 -88 -29 -121 -12 l-31 16 15 -23 c8 -13 27 -23 45
-25 30 -3 104 27 117 48 8 13 6 12 -25 -4z"/>
<path d="M177 173 c-16 -15 -4 -40 30 -65 25 -19 40 -25 48 -18 15 13 25 3 18
-18 -3 -13 -1 -13 11 2 15 18 23 47 10 33 -3 -3 -15 3 -27 13 -12 10 -33 28
-46 39 -26 22 -34 25 -44 14z m33 -24 c0 -5 -7 -9 -15 -9 -15 0 -20 12 -9 23
8 8 24 -1 24 -14z m26 -36 c-10 -10 -19 5 -10 18 6 11 8 11 12 0 2 -7 1 -15
-2 -18z"/>
<path d="M754 169 c-3 -6 -33 -28 -65 -48 -33 -21 -56 -41 -52 -44 3 -4 1 -7
-5 -7 -7 0 -12 4 -12 9 0 4 -16 3 -35 -3 -23 -7 -35 -17 -35 -28 0 -10 -7 -18
-15 -18 -8 0 -15 7 -15 15 0 8 -4 15 -9 15 -5 0 -7 -9 -4 -20 4 -15 14 -20 39
-20 18 0 36 5 39 10 4 6 12 10 18 8 7 -1 22 2 35 6 17 6 21 13 17 29 -6 20 -5
21 8 4 9 -10 21 -15 31 -11 19 7 20 16 4 32 -9 9 -9 12 -1 12 7 0 15 -5 18
-10 3 -5 11 -10 17 -10 6 0 3 9 -7 20 -14 16 -15 20 -4 20 8 0 19 -4 25 -9 5
-6 18 -3 34 9 14 10 21 22 17 27 -5 4 -12 1 -16 -6 -5 -8 -14 -10 -21 -6 -10
6 -9 11 5 22 11 7 14 13 8 13 -7 0 -15 -5 -19 -11z m-66 -94 c-3 -3 -9 2 -12
12 -6 14 -5 15 5 6 7 -7 10 -15 7 -18z m-108 -30 c0 -8 -4 -15 -10 -15 -5 0
-10 7 -10 15 0 8 5 15 10 15 6 0 10 -7 10 -15z"/>
<path d="M299 79 c-9 -17 -8 -23 2 -30 8 -5 20 -7 27 -4 6 2 12 -1 12 -6 0 -7
11 -9 25 -7 14 3 25 1 25 -3 0 -5 8 -9 18 -9 14 0 14 2 3 9 -8 5 -11 16 -8 25
4 10 1 16 -7 16 -8 0 -16 -7 -20 -15 -3 -8 -10 -15 -17 -15 -6 0 -8 7 -5 16 4
10 -1 22 -11 30 -25 18 -31 17 -44 -7z m26 -9 c-3 -5 -12 -10 -18 -10 -7 0 -6
4 3 10 19 12 23 12 15 0z"/>
<path d="M430 45 c0 -13 5 -27 10 -30 6 -3 10 3 10 14 0 12 5 21 10 21 6 0 10
-9 10 -20 0 -13 6 -20 18 -19 9 0 12 3 6 5 -7 3 -9 15 -6 27 3 12 2 19 -3 15
-4 -4 -18 -3 -31 2 -21 8 -24 7 -24 -15z"/>
</g>
</svg>
